<?xml version="1.0" standalone="no"?>
<!DOCTYPE svg PUBLIC "-//W3C//DTD SVG 1.1//EN" "http://www.w3.org/Graphics/SVG/1.1/DTD/svg11.dtd" >
<svg xmlns="http://www.w3.org/2000/svg">
<metadata>Generated by IcoMoon</metadata>
<defs>
<font id="icomoon" horiz-adv-x="1024">
<font-face units-per-em="1024" ascent="896" descent="-128" />
<missing-glyph horiz-adv-x="1024" />
<glyph unicode="&#x20;" horiz-adv-x="0" d="" />
<glyph unicode="&#x78;" glyph-name="x" horiz-adv-x="1001" d="M281 627q-27-1-53-1h-83q-18 0-36.5-6t-32.5-18.5-23-32-9-45.5v-76h912v41q0 16-0.5 30t-0.5 18q0 13-5 29t-17 29.5-31.5 22.5-49.5 9h-133v-97h-438v97zM955 394v-52q0-23 0.5-52t0.5-58-10.5-47.5-26-30-33-16-31.5-4.5q-14-1-29.5-0.5t-29.5 0.5h-32l-45 128h-439l-44-128h-63q-20 0-45 1-25 0-41 9.5t-25.5 23-13.5 29.5-4 30v167h911zM163 331q-12 0-21-8.5t-9-21.5 9-21.5 21-8.5q13 0 22 8.5t9 21.5-9 21.5-22 8.5zM316 207q-8-26-14-48-5-19-10.5-37t-7.5-25-3-15 1-14.5 9.5-10.5 21.5-4h365q23 0 34 12t2 38q-5 13-9.5 30.5t-9.5 34.5q-5 19-11 39h-368zM336 582v228q0 11 2.5 23t10 21.5 20.5 15.5 34 6h188q31 0 51.5-14.5t20.5-52.5v-227h-327z" />
<glyph unicode="&#xe600;" glyph-name="wenben" d="M683 696q-24 0-40.5 16.5t-16.5 39.5v228l284-284h-227zM683 639h227v-569q0-47-33-80.5t-81-33.5h-568q-48 0-81 33.5t-33 80.5v796q0 47 33 80.5t81 33.5h341v-228q0-47 33.5-80t80.5-33zM256 127h341v57h-341v-57zM256 297h512v57h-512v-57zM256 525v-57h512v57h-512z" />
<glyph unicode="&#xe601;" glyph-name="lingsheng" d="M595 806h-41v48q0 17-12 29t-29 12-28.5-12-11.5-29v-45h-41v45q0 34 24 58t57.5 24 57.5-24 24-58v-48zM514.5-6q-65.5 0-113.5 34-50 36-50 88h41q0-31 33-55 37-26 89.5-26t88.5 26q34 24 34 55h41q0-52-51-88-47-34-112.5-34zM657 581h41v-41h-41v41zM655 629q-1 30-33 66-13 15-30 23.5t-24 9.5-10 1q-9-1-15.5 4.5t-7 14 5 15 13.5 6.5q7 1 17.5 0t36-12.5 45.5-34.5q30-35 41-66 8-24 4-37-1-1-1.5-3.5t-6.5-6-15.5-3-14 6-5 10-0.5 6.5zM469 96h-138q-91 0-139 12-50 13-62 42-4 9-4 18t1.5 17 7 18 10.5 17 14 18 14.5 17 15.5 17q22 22 29 32 10 12 11 17v244q0 106 68 186 67 79 169 96l7-40q-88-15-145.5-83.5t-57.5-158.5v-245q0-11-8-24.5t-16.5-23-26.5-29.5q-32-33-42-49-13-19-10-27 5-11 36-19 43-11 128-11h408q61 0 94 11 23 7 27 18 7 16-16 48-15 22-54 62-19 20-25 28t-6 16v245q0 85-62 157.5t-144 83.5l6 41q48-7 92-33 43-25 77-64 72-84 72-185v-240q4-4 19-20 12-12 18.5-19t18.5-20.5 18.5-22.5 14-22.5 10.5-24.5 3-23-4-23q-12-28-52-41-39-13-107-13h-270z" />
<glyph unicode="&#xe602;" glyph-name="edit" d="M1007 667l-57-58-179 181 57 58q17 18 42 18t42-18l95-95q17-18 17-43t-17-43zM493 146h-179v181l417 423 179-181zM374 302v-35h59v-60h35l72 73-94 95zM721 659l-218-220q-10-11 0-21t20 1l217 220q11 10 1 20.5t-20-0.5zM194 677q-35 0-59-24.5t-24-58.5v-498q0-35 24-59t59-24h498q34 0 58.5 24t24.5 59v221l111 111v-360q0-69-49-117.5t-117-48.5h-554q-69 0-117.5 48.5t-48.5 117.5v554q0 68 48.5 117t117.5 49h498l-110-111h-360z" />
<glyph unicode="&#xe603;" glyph-name="dongtaifensishu" horiz-adv-x="1025" d="M670 52h-14q-57 0-98 40.5t-41 98.5q0 51 33 89.5t82 46.5q-4 7-6.5 17.5t8 40 39.5 64.5q34 42 51 102t16.5 117.5-8.5 114.5q-13 79-78.5 129t-146.5 50-146-50.5-79-128.5q-7-58-7.5-115t16.5-117 51-102q20-24 31.5-46t13.5-35.5 1-23.5-3-14l-3-4q-29-39-72.5-61.5t-82-29-84-19.5-73.5-33q-25-18-41-46t-21.5-55.5-7-52 0.5-40.5l1-15h684q-16 30-16 64v14zM947 52v-14q0-34-16-64h82q6 40-1 87-26-9-51-9h-14zM812-26v0zM961 256h-88v87q0 27-19 46t-45.5 19-45.5-19-19-45v-88h-88q-27 0-45.5-19t-18.5-45.5 19-45.5 45-19h88v-88q0-25 17.5-44t43.5-20h7q26 1 43.5 20t17.5 44v88h88q14 0 28 7 16 8 26 23.5t10 34.5q1 26-18 45t-46 19z" />
<glyph unicode="&#xe605;" glyph-name="zhanghu" horiz-adv-x="1154" d="M1016 831q62 0 99.5-31.5t37.5-96.5v-568q0-27-10-52t-28-43-42-29-51-11h-893q-27 0-50.5 10t-41 27-27.5 39.5-10 48.5v581q0 55 34 90t95 35h887zM288 642q-20 0-37.5-7t-30.5-20-21-31-8-38.5 8-38 21-30.5 30.5-20.5 37.5-7.5q21 0 39 7.5t31 20.5 20.5 30.5 7.5 38.5q0 42-27.5 69t-70.5 27zM449 288q0 19-8 37t-20.5 31-30.5 20.5-38 7.5h-128q-40 0-67.5-28t-27.5-68v-97h320v97zM924 186q20 0 30 10.5t10 25-11.5 25-31.5 10.5h-306q-20 0-30.5-10.5t-10.5-25 10.5-25 29.5-10.5h310zM925 318q20 0 29.5 10.5t9.5 24.5q0 16-9 26t-29 10h-314q-20 0-29.5-10t-9.5-26q0-14 9-24.5t29-10.5h314zM926 449q15 0 26.5 10t11.5 24.5-11.5 23-26.5 8.5h-208q-16 0-26.5-8.5t-10.5-23 10.5-24.5 26.5-10h208z" />
<glyph unicode="&#xe608;" glyph-name="loginout" d="M512 20q-91 0-174 35.5t-143 95.5-95.5 143-35.5 174q0 139 77.5 251t202.5 162v-108q-76-45-122-123.5t-46-172 45-173 122.5-126 168.5-46.5 168.5 46.5 122.5 126 45 172.5q0 94-46 172.5t-122 123.5v108q125-50 202.5-162t77.5-251q0-91-35.5-174t-95.5-143-143-95.5-174-35.5v0zM512 916q23 0 39.5-16.5t16.5-39.5v-336q0-23-16.5-39.5t-39.5-16.5-39.5 16.5-16.5 39.5v336q0 23 16.5 39.5t39.5 16.5z" />
<glyph unicode="&#xe609;" glyph-name="icon" d="M740-128h-456q-94 0-160.5 64.5t-66.5 154.5v0q17 99 80.5 180.5t155.5 130.5q-85 85-85 201v0q0 122 89 207.5t215 85.5 215-85.5 89-207.5v0q0-116-85-201 92-49 155.5-130.5t80.5-180.5v0q0-90-66.5-154.5t-160.5-64.5zM664 603v0q0 61-44.5 104t-107.5 43-107.5-43-44.5-104v0q0-60 44.5-103t107.5-43 107.5 43 44.5 103zM816 91q-26 95-112 157.5t-192 62.5v0 0q-106 0-192-62.5t-112-157.5v0q0-30 22.5-51.5t53.5-21.5h456q31 0 53.5 21.5t22.5 51.5v0z" />
<glyph unicode="&#xe610;" glyph-name="new1" d="M282 425l35 59h434l-1-5 4 5h67q-8 74-39.5 129.5t-66.5 78.5q3-22 5.5-51.5t0-81-19.5-63.5q-7-6-11 7.5t-8 43-10.5 68.5-22.5 86.5-39.5 94-66 94.5-97.5 85q-6-99-22-165.5t-42-106.5-52-66.5-65-67-68-85.5h76zM799 167h-147l4 14-12-14h-476l-10 64-14-24q22-103 117-170.5t220-67.5q46 0 93 11l15-1q82 17 141 66 73 59 105 162zM269 211h-55l-22 142q-2 11-1 17h-1q-5-11-19-34l-75-125h-50l130 219h58l21-138q2-13 2-17h1q3 8 16 30l74 125h51zM475 211h-148l130 219h143l-23-38h-89l-31-52h83l-22-38h-83l-32-53h95zM978 430l-197-219h-59l42 143q3 11 10 24v0q-11-15-19-24l-129-143h-62l64 219h58l-51-148q-3-10-11-25h1q8 12 20 25l135 148h57l-47-149q-3-9-10-23h1q8 12 18 23l125 149h54zM269 211h-55l-22 142q-2 11-1 17h-1q-5-11-19-34l-75-125h-50l130 219h58l21-138q2-13 2-17h1q3 8 16 30l74 125h51zM475 211h-148l130 219h143l-23-38h-89l-31-52h83l-22-38h-83l-32-53h95zM978 430l-197-219h-59l42 143q3 11 10 24v0q-11-15-19-24l-129-143h-62l64 219h58l-51-148q-3-10-11-25h1q8 12 20 25l135 148h57l-47-149q-3-9-10-23h1q8 12 18 23l125 149h54z" />
<glyph unicode="&#xe614;" glyph-name="gonggao" horiz-adv-x="1038" d="M838 162q-12 0-17 10-5 7-2.5 15t9.5 13q70 41 112 111 42 73 42 157t-42 156q-40 70-110 112-7 4-9 12t2 15.5 12.5 9.5 15.5-2q78-47 124-126 47-82 47-177t-48-177q-46-80-126-126-5-3-10-3v0 0zM732 293q-12 0-18 10-4 7-2 15t9 12q37 21 58 58 22 37 22 80t-22 80q-21 36-56 57-8 5-10 13t2.5 15 12.5 9 15-2q45-27 71-72 27-46 27-100t-27-101q-27-45-72-72-5-2-10-2v0 0zM575 18q-38 0-78 29l-39 27q-7 4-8.5 12.5t3.5 15 13 8 15-2.5l39-28q12-8 31.5-16t32.5-3q4 1 6.5 3t5 11.5 2.5 27.5v731q-1 17-4 26t-5.5 11.5-8.5 5.5q-12 5-30-2.5t-29-16.5l-1-1-240-180q-24-19-58-29.5t-50-11.5-28 0q-38-1-67-26.5t-34-63.5l-1-14v-126l1-14q5-39 34-64.5t67-25.5h3q31 0 64.5-10.5t45.5-17.5 20-12q4-3 11-8t25-21 34-33 34.5-44 31.5-54q4-8 1-15.5t-10.5-11-15.5-1-11 10.5q-18 39-50 75.5t-47.5 49-24.5 18.5q-7 5-17.5 10.5t-39 14.5-53.5 9v0q-54 0-94.5 35.5t-47.5 89.5v0l-2 17v130l2 16q7 54 47.5 90t94.5 36h1q7 0 19.5 0.5t41 8.5 48.5 24h1l240 180q14 11 31 19 40 19 70 5 19-8 28-23 12-18 14-54v-734q-1-20-3-33t-12-26.5-27-19.5q-10-4-22-4v0 0z" />
<glyph unicode="&#xe61e;" glyph-name="dengji3" horiz-adv-x="1298" d="M1227 842q8 8 8 16 0 14-16 14h-154q-6 0-10.5-4.5t-4.5-10.5 4.5-10 10.5-4h125l-82-94q-7-6-7-12t4.5-10 9.5-4h11q35 0 57-14.5t22-39.5-18-40.5-44-15.5q-45 0-77 36-5 5-12 5-6 0-10.5-5t-4.5-11 5-12q38-42 99-42 40 0 67 24t27 61-26.5 57-66.5 23zM773 576q-4 0-8 1-21 7-21 38v234q0 11-5 19.5t-11 8.5h-35q-7 0-12 5t-5 12.5 5 12.5 12 5h35q21 0 36.5-18.5t15.5-44.5v-229l223 285q5 6 12 7t13-3.5 7-11.5-3-13l-227-289q-16-19-32-19v0zM414 723q-70 0-119.5-50.5t-49.5-122 49.5-122.5 119.5-51 119.5 51 49.5 122.5-49.5 122-119.5 50.5v0zM414 414q-56 0-95 40t-39 96.5 39 96.5 94.5 40 94.5-40 39-96.5-39-96.5-94-40v0zM743 155l-113 207q67 81 67 188 0 121-83 206t-200.5 85-200.5-85-83-206q0-102 63-182l-117-213q-13-21-5-36 7-14 25-14h2q29 2 88 0l62-83v-1q6-7 15-7h2q11 0 18 12v1q11 18 124 233h6q112-215 123-233v-1q8-12 19-12h1q9 0 15 7h1l62 84q59 2 88 0h1q19 0 25 14 8 15-5 36v0zM263 48l-63 85-6 1q-62 2-97 0 1 3 3 6v1l113 205v-1q68-70 163-82-93-178-113-215v0zM167 550q0 105 72 179.5t174.5 74.5 175-74.5 72.5-179-72.5-179-175-74.5-174.5 74.5-72 178.5v0zM618 135l-61-83q-19 35-109 208 93 10 161 77l107-195q2-3 3-7-34 2-94 0h-7z" />
<glyph unicode="&#xe622;" glyph-name="lock1" d="M189 876v0 0zM371 441h290v108q0 61-42.5 103.5t-102.5 42.5-102.5-42.5-42.5-103.5v-108zM843 386v-326q0-23-16-39t-39-16h-544q-23 0-39 16t-16 39v326q0 23 16 39t39 16h18v108q0 105 75 180t179 74.5 179-75 75-179.5v-108h18q23 0 39-16t16-39z" />
<glyph unicode="&#xe623;" glyph-name="huanfu" d="M997 778l-257 148q-9 6-19 7v0 0q-7 1-14 0h-60q-1-55-40-94.5t-95-39.5-95 39.5-40 94.5h-60v-2q-18 2-33-7l-257-148q-19-11-25-32.5t5-41.5l81-140q11-19 32.5-24.5t41.5 5.5l27 15v-502q0-22 15.5-38t38.5-16h538q23 0 38.5 16t15.5 38v504l27-15q20-11 41.5-5.5t32.5 25.5l81 140q11 19 5 40.5t-25 32.5z" />
<glyph unicode="&#xe628;" glyph-name="dengji1" horiz-adv-x="1298" d="M1170 884q-6 0-19-4l-49-18q-13-4-13-14 0-6 4.5-10.5t10.5-4.5q4 0 7 1l43 14v-255q0-7 5-12t12-5 11.5 5 4.5 12v274q0 7-4.5 12t-11.5 5h-1zM773 576q-4 0-8 1-21 7-21 38v234q0 11-5 19.5t-11 8.5h-35q-7 0-12 5t-5 12.5 5 12.5 12 5h35q21 0 36.5-18.5t15.5-44.5v-229l223 285q5 6 12 7t13-3.5 7-11.5-3-13l-227-289q-16-19-32-19v0zM414 723q-70 0-119.5-50.5t-49.5-122 49.5-122.5 119.5-51 119.5 51 49.5 122.5-49.5 122-119.5 50.5v0zM414 414q-56 0-95 40t-39 96.5 39 96.5 94.5 40 94.5-40 39-96.5-39-96.5-94-40v0zM743 155l-113 207q67 81 67 188 0 121-83 206t-200.5 85-200.5-85-83-206q0-102 63-182l-117-213q-13-21-5-36 7-14 25-14h2q29 2 88 0l62-83v-1q6-7 15-7h2q11 0 18 12v1q11 18 124 233h6q112-215 123-233v-1q8-12 19-12h1q9 0 15 7h1l62 84q59 2 88 0h1q19 0 25 14 8 15-5 36v0zM263 48l-63 85-6 1q-62 2-97 0 1 3 3 6v1l113 205v-1q68-70 163-82-93-178-113-215v0zM167 550q0 105 72 179.5t174.5 74.5 175-74.5 72.5-179-72.5-179-175-74.5-174.5 74.5-72 178.5v0zM618 135l-61-83q-19 35-109 208 93 10 161 77l107-195q2-3 3-7-34 2-94 0h-7z" />
<glyph unicode="&#xe629;" glyph-name="dengji2" horiz-adv-x="1298" d="M1220 613h-139l77 68q41 35 57 58.5t16 52.5v1q0 35-25.5 58t-63.5 23q-34 0-56-13t-42-40q-3-3-3-9t4.5-10 10.5-4q7 0 12 5 31 42 71 42 24 0 41-15t17-40q0-21-13-40.5t-47-49.5l-98-87q-8-6-8-15 0-7 5-11t12-4h172q7 0 11.5 4.5t4.5 10.5-4.5 10.5-11.5 4.5v0zM773 576q-4 0-8 1-21 7-21 38v234q0 11-5 19.5t-11 8.5h-35q-7 0-12 5t-5 12.5 5 12.5 12 5h35q21 0 36.5-18.5t15.5-44.5v-229l223 285q5 6 12 7t13-3.5 7-11.5-3-13l-227-289q-16-19-32-19v0zM414 723q-70 0-119.5-50.5t-49.5-122 49.5-122.5 119.5-51 119.5 51 49.5 122.5-49.5 122-119.5 50.5v0zM414 414q-56 0-95 40t-39 96.5 39 96.5 94.5 40 94.5-40 39-96.5-39-96.5-94-40v0zM743 155l-113 207q67 81 67 188 0 121-83 206t-200.5 85-200.5-85-83-206q0-102 63-182l-117-213q-13-21-5-36 7-14 25-14h2q29 2 88 0l62-83v-1q6-7 15-7h2q11 0 18 12v1q11 18 124 233h6q112-215 123-233v-1q8-12 19-12h1q9 0 15 7h1l62 84q59 2 88 0h1q19 0 25 14 8 15-5 36v0zM263 48l-63 85-6 1q-62 2-97 0 1 3 3 6v1l113 205v-1q68-70 163-82-93-178-113-215v0zM167 550q0 105 72 179.5t174.5 74.5 175-74.5 72.5-179-72.5-179-175-74.5-174.5 74.5-72 178.5v0zM618 135l-61-83q-19 35-109 208 93 10 161 77l107-195q2-3 3-7-34 2-94 0h-7z" />
<glyph unicode="&#xe62a;" glyph-name="menu1" d="M92 888h840q25 0 42.5-17.5t17.5-42.5-17.5-42.5-42.5-17.5h-840q-25 0-42.5 17.5t-17.5 42.5 17.5 42.5 42.5 17.5zM92 528h840q25 0 42.5-17.5t17.5-42.5-17.5-42.5-42.5-17.5h-840q-25 0-42.5 17.5t-17.5 42.5 17.5 42.5 42.5 17.5zM92 168h840q25 0 42.5-17.5t17.5-42.5-17.5-42.5-42.5-17.5h-840q-25 0-42.5 17.5t-17.5 42.5 17.5 42.5 42.5 17.5z" />
<glyph unicode="&#xe62b;" glyph-name="dengji4" horiz-adv-x="1298" d="M1156 646h-148q-8 0-12.5 4.5t-4.5 11.5q0 8 6 16l155 183q8 10 18 10 8 0 13-4.5t5-12.5v-180h34q6 0 10-4t4-10-4-10-10-4h-34v-55q0-6-4.5-10.5t-11.5-4.5-11.5 4.5-4.5 10.5v55zM1156 674v149l-125-149h125zM773 576q-4 0-8 1-21 7-21 38v234q0 11-5 19.5t-11 8.5h-35q-7 0-12.5 5t-5.5 12.5 5.5 12.5 12.5 5h35q21 0 36.5-18.5t15.5-44.5v-229l223 285q5 6 12 7t13-3.5 7-11.5-3-13l-227-289q-16-19-32-19v0zM414 724q-70 0-119.5-51t-49.5-122.5 49.5-122.5 119.5-51 119.5 51 49.5 122.5-49.5 122.5-119.5 51v0zM414 414q-56 0-95 40t-39 96.5 39 96.5 94.5 40 94.5-40 39-96.5-39-96.5-94-40v0zM743 155l-113 207q67 81 67 188 0 121-83 206t-200.5 85-200.5-85-83-206q0-102 63-182l-117-213q-13-21-5-36 7-14 25-14h2q30 2 88 0l62-83v-1q6-7 16-7h1q11 0 18 12l1 1q10 17 123 233h6q112-214 123-233l1-1q7-12 18-12h1q9 0 16 7v0l62 84q61 2 88 0h1q19 0 26 14 7 15-6 36v0zM263 48l-63 85-6 1q-66 1-97 0 1 3 3 6v1l113 205v-1q68-70 163-82-92-176-113-215v0zM167 550q0 105 72 179.5t174.5 74.5 175-74.5 72.5-179-72.5-179-175-74.5-174.5 74.5-72 178.5v0zM618 135l-61-83q-22 41-109 208 93 10 161 77l107-195q2-3 3-7-47 3-94 0h-7z" />
<glyph unicode="&#xe62c;" glyph-name="dengji5" horiz-adv-x="1298" d="M1083 752l6 90h122q6 0 10 4t4 10-4 10.5-10 4.5h-135q-15 0-16-15l-6-110q-1-13 7-18 9-6 16-6l18.5 7t38.5 7q31 0 50.5-16.5t19.5-42.5q0-28-19-45.5t-49-17.5q-37 0-72 31-5 4-11 4t-10.5-4.5-4.5-9.5q0-8 6-14 41-36 92-36 44 0 72 26t28 66-27.5 63.5-69.5 23.5q-27 0-56-12zM773 576q-4 0-8 1-21 7-21 38v234q0 11-5 19.5t-11 8.5h-35q-7 0-12 5t-5 12.5 5 12.5 12 5h35q21 0 36.5-18.5t15.5-44.5v-229l223 285q5 6 12 7t13-3.5 7-11.5-3-13l-227-289q-16-19-32-19v0zM414 723q-70 0-119.5-50.5t-49.5-122 49.5-122.5 119.5-51 119.5 51 49.5 122.5-49.5 122-119.5 50.5v0zM414 414q-56 0-95 40t-39 96.5 39 96.5 94.5 40 94.5-40 39-96.5-39-96.5-94-40v0zM743 155l-113 207q67 81 67 188 0 121-83 206t-200.5 85-200.5-85-83-206q0-102 63-182l-117-213q-13-21-5-36 7-14 25-14h2q29 2 88 0l62-83v-1q6-7 15-7h2q11 0 18 12v1q11 18 124 233h6q112-215 123-233v-1q8-12 19-12h1q9 0 15 7h1l62 84q59 2 88 0h1q19 0 25 14 8 15-5 36v0zM263 48l-63 85-6 1q-62 2-97 0 1 3 3 6v1l113 205v-1q68-70 163-82-93-178-113-215v0zM167 550q0 105 72 179.5t174.5 74.5 175-74.5 72.5-179-72.5-179-175-74.5-174.5 74.5-72 178.5v0zM618 135l-61-83q-19 35-109 208 93 10 161 77l107-195q2-3 3-7-34 2-94 0h-7z" />
<glyph unicode="&#xe62d;" glyph-name="erweima" d="M544 0h64v-64h-64v64zM416 480v352h-352v-352h64v-64h64v64h224zM128 544v224h224v-224h-224zM192 704h96v-96h-96v96zM608 832v-352h352v352h-352zM896 544h-224v224h224v-224zM736 704h96v-96h-96v96zM192 160h96v-96h-96v96zM64 416h64v-64h-64v64zM192 416h64v-64h-64v64zM256 288h-192v-352h352v352h-96v64h-64v-64zM352 224v-224h-224v224h224zM480 800h64v-96h-64v96zM480 640h64v-64h-64v64zM672 416h-128v96h-64v-96h-160v-64h288v-64h64v128zM672 288h64v-64h-64v64zM480 288h64v-96h-64v96zM480 128h64v-128h-64v128zM608 192h64v-192h-64v192zM800 288h160v-64h-160v64zM896 416h64v-64h-64v64zM736 416h128v-64h-128v64zM736 192h64v-64h-64v64zM896 128h-32v-64h64v64h32v64h-64v-64zM736 64h64v-64h-64v64zM800 0h160v-64h-160v64z" />
<glyph unicode="&#xe62e;" glyph-name="dengji6" horiz-adv-x="1298" d="M773 576q-4 0-8 1-21 7-21 38v234q0 11-5 19.5t-11 8.5h-35q-7 0-12 5t-5 12.5 5 12.5 12 5h35q21 0 36.5-18.5t15.5-44.5v-229l223 285q5 6 12 7t13-3.5 7-11.5-3-13l-227-289q-16-19-32-19v0zM1196 678q0-28-18.5-46.5t-49.5-18.5q-30 0-50.5 18t-20.5 45v1q0 25 20 43.5t51 18.5q30 0 49-17.5t19-43.5v0 0zM414 723q-70 0-119.5-50.5t-49.5-122 49.5-122.5 119.5-51 119.5 51 49.5 122.5-49.5 122-119.5 50.5v0zM414 414q-56 0-95 40t-39 96.5 39 96.5 94.5 40 94.5-40 39-96.5-39-96.5-94-40v0zM743 155l-113 207q67 81 67 188 0 121-83 206t-200.5 85-200.5-85-83-206q0-102 63-182l-117-213q-13-21-5-36 7-14 25-14h2q29 2 88 0l62-83v-1q6-7 15-7h2q11 0 18 12v1q11 18 124 233h6q112-215 123-233v-1q8-12 19-12h1q9 0 15 7h1l62 84q59 2 88 0h1q19 0 25 14 8 15-5 36v0zM263 48l-63 85-6 1q-62 2-97 0 1 3 3 6v1l113 205v-1q68-70 163-82-93-178-113-215v0zM167 550q0 105 72 179.5t174.5 74.5 175-74.5 72.5-179-72.5-179-175-74.5-174.5 74.5-72 178.5v0zM618 135l-61-83q-19 35-109 208 93 10 161 77l107-195q2-3 3-7-34 2-94 0h-7zM1132 766q-51 0-80-43-1 55 21.5 89.5t60.5 34.5q30 0 58-22 4-2 9-2 6 0 10.5 4.5t4.5 10.5q0 8-7 13-34 25-73 25-54 0-85.5-43.5t-31.5-109.5v0q0-74 35-109 29-29 74-29 43 0 72 26.5t29 67.5v1q0 38-28.5 62t-68.5 24v0z" />
<glyph unicode="&#xe62f;" glyph-name="guanbi" d="M512 832q91 0 172.5-34.5t143.5-96.5v0 0q62-62 96.5-143.5t34.5-172.5-34.5-172.5-96.5-143.5l-3-3q-61-60-142-94t-171-34q-91 0-172.5 34.5t-143.5 96.5v0 0q-62 62-96.5 143.5t-34.5 172.5 34.5 172.5 96.5 143.5l2 3q62 60 143 94t171 34v0zM629 573v0l-117-118-118 118q-14 14-34.5 14t-34.5-14q-15-15-15-35.5t15-35.5l117-117-117-117q-15-15-15-35.5t15-35.5q14-14 34.5-14t34.5 14l118 118 117-118q15-14 35.5-14t35 14.5 14.5 35-14 35.5l-118 117 118 117q14 15 14 35.5t-14 35.5q-15 14-35.5 14t-35.5-14v0zM758 631v0q-48 48-111.5 75t-134.5 27q-143 0-244-100l-2-2q-48-48-74.5-111.5t-26.5-134.5 26.5-134.5 74.5-111.5v0q48-48 111.5-75t134.5-27q70 0 133 26.5t110 73.5l2 2q49 48 75.5 111.5t26.5 134.5-26.5 134.5-75.5 111.5h1z" />
<glyph unicode="&#xe63d;" glyph-name="xinlangweibo" d="M823-63h-622q-56 0-96 40t-40 96v622q0 56 40 96t96 40h622q56 0 96-40t40-96v-622q0-56-40-96t-96-40v0zM513 534q0 13-2 24.5t-9.5 23.5-20 18.5-35 6-53.5-10.5q-30-10-61.5-31t-55.5-43-43-43.5-29.5-34.5l-10.5-13q-28-38-42-76t-13-57v-19q5-42 25.5-75.5t49-54 67.5-35 74.5-21 74.5-9.5q66-5 135.5 10t130 53 84.5 91q15 31 15.5 58t-9 44-25 30.5-29 19.5-24.5 8q-13 2-17 7.5t-1 9.5l3 5q3 5 7 14t3 31-16 38q-12 12-32 16t-39.5 1-37.5-8-29-10l-11-5q-27-8-29.5 2.5t5.5 34.5v0zM748 470q0-9 6-15t15-6q7 0 13 5t7 13v2q3 28-1.5 50t-14 34-22.5 19.5-26 10-24 3-18.5-0.5l-7.5-1q-8 0-14-6t-6-15 6-15 14-6q71 16 75-46l-2-26zM754 692q-45 10-104-1-1 0-1.5-0.5t-1.5-0.5l-1-1q-9-3-15.5-11t-6.5-18q0-13 9-21.5t22-8.5q16 2 27 6 5 0 15.5 1.5t28.5-3 36-11.5 37.5-23 32.5-38q23-51 9-100-6-15-6-29 0-12 8.5-19.5t21.5-7.5 20 4.5 9 20.5v0q16 49 12 88.5t-17 69-37 51-48.5 34-49.5 18.5v0zM667 293q0-63-67.5-113.5t-160.5-54.5q-95-5-161.5 36.5t-66.5 104.5 66.5 108 161.5 50q96 4 162-32.5t66-98.5v0zM414 368q-36-4-60.5-19.5t-34-34-14.5-37-4-30.5l1-12v-4.5t1.5-10 5-14.5 10.5-15 17-13q57-28 107.5-17t81.5 51q14 19 16 47.5t-9 54.5-42.5 42.5-75.5 11.5v0zM434 267q-3 5-1.5 12.5t7.5 11.5q15 12 23-2 8-13-7-24-14-11-22 2v0zM382 202q-18-3-30.5 6t-12.5 24 11.5 28 29.5 15q19 2 31.5-8t12.5-25-12.5-27-29.5-13v0z" />
<glyph unicode="&#xe63e;" glyph-name="qq" d="M959 695q0 56-40 96t-96 40h-622q-56 0-96-40t-40-96v-622q0-56 40-96t96-40h622q56 0 96 40t40 96v622zM795 271v-9l3-5 1-8v-8l-2-7v-2l-3-6-2-3-1-2-6-6-2-1-2 2-2 3h-2l-2-3h-3l-1 1h-2l-6 6-3 4-3 5-2 3-3 4-3 7-4 2v-5h-1l-2 4-1 1-1-1-3-7-4-10-5-12-4-6-4-7-10-14-2-3-11-11 2-2 3-2 16-7 6-4 7-3 6-5 5-5 3-2 2-2 4-6 2-6v-3l-2-3-4-2v-2l3-2v-2l1-1-1-2-3-4-2-3-4-4-4-3-5-3-5-2-5-3-12-4-7-2-7-1-8-2-8-1-16-6h-26l-9 3-9 2-10 2-9 1-10 1-9 3-10 2-9 2-9 4-10 3-4 1-5 2-3-1-2-1h-8l-9 2-4 2-6 1-4-3-5-3-7-4-12-6-5-2-11-4-6-2-6-1-8-2-6-1h-5l-6-1h-50l-15 2-16 2-7 1-14 4-7 1-6 3-5 2-6 3-4 3-5 3-2 1-2 2-1 2-2 2-2 4-1 5v22l2 6 2 4 1 1 1 2 3 3 3 2 2 1 2 2 3 1 2 2 4 1 3 1 12 3 10 2 1 1h1l-5-1v1l1 1-11 11-5 4-6 5-5 7-12 16-3 5-2 5-6 10-2 6-3 7-2 6-1 9-1 2h-1l-1-2-1-1-1-2v-3l-4-8-2-3-3-3-3-4-2-4-4-3-3-3-12-9-8-2h-7l-1 2-2 1-1 4-3 6-1 3v3l-1 8 1 5v15l-1 12 1 5 1 6 1 7 1 6 4 14 3 6 2 7 4 7 3 7 4 7 15 21 4 5 5 6 16 16 5 4 8 7 6 5 2 1-1 4-7 4-5 3v10l6 4 4 5 2 4 3 5 4 6 4 5v12l2 5 1 6 1 2 2 3-6 4v14l6 6 3 8 3 9 4 10 2 6 2 5 2 6 12 24 5 7 4 6 4 7 5 7 12 14 6 6 6 7 8 7 5 5 7 5 6 4 7 4 6 4 8 3 7 3 8 3 8 2 8 3 18 4 8 1 27 3h28l9-1 10-1 9-1 27-6 10-3 8-3 9-4 8-3 9-5 8-4 14-10 6-4 7-6 10-10 5-6 4-5 5-6 4-7 3-5 4-7 3-5 5-12 3-6 6-18 1-5 2-6 3-10 2-18 2-8 1-10v-2l2-2 3-6 3-4 1-4 3-4 4-10 2-12-1-3-2-3v-10l1-4-1-7v-10l1-3 14-21 3-7 5-6 3-7 4-8 4-9 8-16 8-24 2-5 2-11-3-11-3-10v-5z" />
<glyph unicode="&#xe645;" glyph-name="computer" d="M948 843h-872q-30 0-51.5-21.5t-21.5-51.5v-587q0-30 21.5-51.5t51.5-21.5h363v-110h-181q-15 0-26-11t-11-26v-36h582v36q0 15-10.5 26t-25.5 11h-182v110h363q31 0 52 21.5t21 51.5v587q0 30-21 51.5t-52 21.5v0 0zM476 183q0 15 10.5 26t25.5 11 26-11 11-26-11-26-26-11-25.5 11-10.5 26v0 0zM76 256v514h872v-514h-872z" />
<glyph unicode="&#xe648;" glyph-name="shuaxin1" d="M511.5 915q-90.5 0-173.5-35.5t-142.5-95-95-142.5-35.5-173.5 35.5-173.5 95-142.5 142.5-95 173.5-35.5 173.5 35.5 142.5 95 95 142.5 35.5 173.5-35.5 173.5-95 142.5-142.5 95-173.5 35.5zM511 214q-77 0-138.5 44t-87.5 114v0q-3 7-3 14 0 13 9 22t22 9q23 0 30-22h1q18-52 64-85t103-33q73 0 125 52t52 125.5-52 125.5-125 52q-31 0-61-11l22-43q4-4 4-10.5t-5-11-11-4.5v0h-1l-158 6q-9 1-13.5 9t0.5 16l85 134q5 7 14 7t14-9l19-37q44 18 91 18 99 0 170-71t71-170.5-71-170-170-70.5z" />
<glyph unicode="&#xe64a;" glyph-name="shezhi1" horiz-adv-x="1095" d="M1091 544q-3 18-18 33.5t-33 19.5l-18 5q-67 20-102 81-36 61-19 130v0l5 17q5 17-1 38t-20 33q-17 14-64 41-21 12-38 20.5l-23 11.5-7 3q-17 6-38 1t-33-19l-13-13q-51-48-122-48-70 0-122 48l-12 13q-12 14-33 19t-39-1q-20-8-67-35-21-12-37-22.5t-22-14.5l-5-4q-14-12-20-33t-1-38l5-17q17-69-18.5-130t-103.5-82l-17-4q-18-4-33-19.5t-18-33.5q-4-22-4-76 0-24 1-43t2-26l1-7q3-18 18-33.5t33-19.5l17-4q68-20 103-82 36-61 19-130v0l-5-17q-5-17 1-38t20-33q17-14 64-41 13-8 25-14t19.5-10 13-6.5 7.5-3.5l2-1q18-6 39-1t33 19l12 12q52 49 122.5 49t122.5-49v0l12-12q12-14 33-19t38 1q21 8 68 35 21 12 37 22.5t21.5 14.5l5.5 4q14 12 20 33t1 38l-5 17q-17 69 19 130 35 61 103 82v0l17 4q18 4 33 19.5t18 33.5q4 22 4 76 0 24-1 43t-2 26l-1 7zM547 250q-90 0-154 64t-64 154 64 154 154.5 64 154.5-64 64-154.5-64-154-155-63.5v0z" />
<glyph unicode="&#xe64d;" glyph-name="text" d="M159 80h163v81h-163v28h163v81h-163v27h163v82h-163v27h163v273h-245v-736h599v109h-517v28zM804 815h-19v-163h164v26zM758 815h-408v-735h599v544h-191v191zM867 189h-436v27h436v-27zM867 297h-436v28h436v-28zM867 406h-436v28h436v-28zM867 543v-28h-436v28h436z" />
<glyph unicode="&#xe64e;" glyph-name="caozuo" d="M840 533q-30 31-74 31h-2q-13 0-24-2-31 42-83 42-13 0-26-3-31 42-83 42h-4v35q0 44-29 76-30 34-75 34-44 0-76-32.5t-32-77.5v-214q-29 23-69 22-45-1-73-30-29-29-35-70-7-50 29-86v0l210-209q8-8 18-14 35-28 78.5-42t115.5-14q161 0 222 89 24 36 32.5 83t8.5 115v150q1 44-29 75zM806 308q0-117-31-162-41-61-169-61-60 0-94 10.5t-61 32.5q-2 1-3 2-5 3-8 6l-210 209q-11 11-11.5 25t4.5 24 12 17q11 10 30 11 20 0 31-11l46-46q15-15 35-7 20 9 20 30v290q0 18 13 32t30 14 29-14 12-32v-35q-1-3-1-6v-169q0-14 9.5-23t22.5-9 22.5 9 9.5 23v110q2 1 4 1 26 0 37-25v-118q0-13 9.5-22.5t22.5-9.5 22.5 9.5 9.5 22.5v103q4 1 8 1 26 0 37-25v-112q0-13 9-22.5t22.5-9.5 23 9.5 9.5 22.5v97h8q17 0 28-11 12-13 12-31v-150zM281.5 695q13.5 0 22.5 9t9 23q0 51 37 88t88.5 37 88-37 36.5-88q0-14 9.5-23t22.5-9 22.5 9 9.5 23q0 78-55.5 133.5t-133.5 55.5-133.5-55.5-55.5-133.5q0-14 9.5-23t23-9z" />
<glyph unicode="&#xe657;" glyph-name="link" horiz-adv-x="1125" d="M274 542l312-312q53-55 129.5-55t129.5 55q56 54 56 132t-56 136l-337 338q-80 79-193.5 79t-196.5-79q-78-82-78-197.5t78-200.5l338-338q71-68 165.5-92.5t188.5 0 165 92.5q68 72 92.5 166.5t0 188.5-92.5 164l-329 329-60-61 328-328q79-82 79-197.5t-79-200.5q-83-78-198.5-78t-199.5 78l-337 346q-53 55-53 133t53 135q57 53 135 53t133-53l337-346q30-27 30-67.5t-30-70.5q-27-29-68-29t-70 29l-311 320z" />
<glyph unicode="&#xe73a;" glyph-name="prohibit" d="M511.5 892q-115.5 0-213-57t-154-154.5-56.5-212.5 56.5-212.5 154-154.5 213-57 213 57 154 154.5 56.5 212.5-56.5 212.5-154 154.5-213 57zM512 134q-51 1-118.5 28t-113.5 71q-51 48-76.5 114t-25.5 121q0 33 7 66.5t17 56.5 20 42 17 28l7 9 467-467q0-4-25-21-73-49-176-48zM777 266l-467 468q3 2 9 7t26.5 16.5 42.5 20.5 56 16.5 68 7.5q61 0 115.5-21t93.5-55 67.5-77.5 42.5-90 14-90.5q0-35-7-68.5t-17-56.5-20-41-17-27z" />
<glyph unicode="&#xe783;" glyph-name="star" d="M987 598q-8 23-27.5 39t-44.5 20l-224 32-97 199q-11 23-33.5 36.5t-48.5 13.5-48.5-13.5-33.5-36.5l-97-199-224-32q-25-4-44.5-20t-27.5-39q-8-24-2.5-48t23.5-42l164-162-38-224q-4-25 6.5-48.5t31.5-37.5q23-16 52-16 23 0 43 10l195 104 195-104q20-10 43-10v0q29 0 53 16 21 14 31 37.5t6 48.5l-38 224 164 162q18 18 23.5 42t-2.5 48zM508 558q-45 0-69-24-28-28-28-74 1-10-6.5-17.5t-17.5-8.5h-1q-10 0-17 7.5t-8 17.5q0 8 1 20.5t11.5 41 29.5 48.5q39 40 105 40 10-1 17-8t7-17.5-7-17.5-17-8v0z" />
<glyph unicode="&#xe89e;" glyph-name="weather" horiz-adv-x="1265" d="M1036 411h-18q-23 78-89.5 129t-151.5 51q-104 0-178.5-74t-74.5-178q0-36 6-54h-6q-68 0-115-47t-47-114q0-53 35-97.5t85-58.5q6-3 18-6t18-6h555q82 14 137 78.5t55 149.5q0 94-67 160.5t-162 66.5zM506 980h-54v-180h54v180zM850 812l-36 36-127-125 36-36zM271 728l-126 126-37-36 127-125zM127 160l36-36 126 125-36 36zM470 333v6q0 102 56.5 182t148.5 112q-32 40-82.5 65t-104.5 25q-99 0-167-67.5t-68-166.5q0-62 33-117t88-87q38 39 96 48zM181 525h-181v-54h181v54z" />
</font>
</defs>
</svg>
